<svg width="26" height="26" viewBox="0 0 26 26" fill="none" xmlns="http://www.w3.org/2000/svg">
<path d="M17.0604 13L24.9206 5.13977C26.0419 4.01852 26.0419 2.20065 24.9206 1.0794C23.7993 -0.0418482 21.9815 -0.0418482 20.8602 1.0794L13 8.93964L5.13977 1.0794C4.01852 -0.0418482 2.20065 -0.0418482 1.0794 1.0794C-0.041852 2.20065 -0.041852 4.01852 1.0794 5.13977L8.93963 13L1.0794 20.8602C-0.041852 21.9815 -0.041852 23.7994 1.0794 24.9206C1.64002 25.4812 2.37479 25.7615 3.10955 25.7615C3.84432 25.7615 4.57914 25.4812 5.13971 24.9206L13 17.0604L20.8602 24.9206C21.4209 25.4812 22.1556 25.7615 22.8904 25.7615C23.6252 25.7615 24.3599 25.4812 24.9205 24.9206C26.0418 23.7994 26.0418 21.9815 24.9205 20.8602L17.0604 13Z" fill="white"/>
</svg>
