<svg width="12" height="16" viewBox="0 0 12 16" fill="none" xmlns="http://www.w3.org/2000/svg">
<path d="M6 8.66699C7.10457 8.66699 8 7.77156 8 6.66699C8 5.56242 7.10457 4.66699 6 4.66699C4.89543 4.66699 4 5.56242 4 6.66699C4 7.77156 4.89543 8.66699 6 8.66699Z" stroke="#F8F8F8" stroke-linecap="round" stroke-linejoin="round"/>
<path d="M6.00002 1.3335C4.58553 1.3335 3.22898 1.8954 2.22878 2.89559C1.22859 3.89579 0.666687 5.25234 0.666687 6.66683C0.666687 7.92816 0.934687 8.7535 1.66669 9.66683L6.00002 14.6668L10.3334 9.66683C11.0654 8.7535 11.3334 7.92816 11.3334 6.66683C11.3334 5.25234 10.7715 3.89579 9.77126 2.89559C8.77106 1.8954 7.41451 1.3335 6.00002 1.3335V1.3335Z" stroke="#F8F8F8" stroke-linecap="round" stroke-linejoin="round"/>
</svg>
