<svg width="14" height="14" viewBox="0 0 14 14" fill="none" xmlns="http://www.w3.org/2000/svg">
<path d="M11.6666 2.33337H3.49998C2.85656 2.33337 2.33331 2.85662 2.33331 3.50004V6.41671H3.49998V4.66671L7.23331 7.46671C7.33432 7.54235 7.45712 7.58323 7.58331 7.58323C7.70951 7.58323 7.8323 7.54235 7.93331 7.46671L11.6666 4.66671V9.91671H6.99998V11.0834H11.6666C12.3101 11.0834 12.8333 10.5601 12.8333 9.91671V3.50004C12.8333 2.85662 12.3101 2.33337 11.6666 2.33337ZM7.58331 6.27087L3.88848 3.50004H11.2781L7.58331 6.27087Z" fill="white"/>
<path d="M1.16669 7H5.25002V8.16667H1.16669V7ZM2.33335 8.75H5.83335V9.91667H2.33335V8.75ZM4.08335 10.5H6.41669V11.6667H4.08335V10.5Z" fill="white"/>
</svg>
