<svg width="16" height="13" viewBox="0 0 16 13" fill="none" xmlns="http://www.w3.org/2000/svg">
<path fill-rule="evenodd" clip-rule="evenodd" d="M0 0.5C0 0.367392 0.120408 0.240215 0.334735 0.146447C0.549062 0.0526785 0.839753 0 1.14286 0H14.8571C15.1602 0 15.4509 0.0526785 15.6653 0.146447C15.8796 0.240215 16 0.367392 16 0.5C16 0.632608 15.8796 0.759785 15.6653 0.853553C15.4509 0.947321 15.1602 1 14.8571 1H1.14286C0.839753 1 0.549062 0.947321 0.334735 0.853553C0.120408 0.759785 0 0.632608 0 0.5Z" fill="currentColor"/>
<path fill-rule="evenodd" clip-rule="evenodd" d="M0 6.5C0 6.36739 0.120408 6.24021 0.334735 6.14645C0.549062 6.05268 0.839753 6 1.14286 6H14.8571C15.1602 6 15.4509 6.05268 15.6653 6.14645C15.8796 6.24021 16 6.36739 16 6.5C16 6.63261 15.8796 6.75979 15.6653 6.85355C15.4509 6.94732 15.1602 7 14.8571 7H1.14286C0.839753 7 0.549062 6.94732 0.334735 6.85355C0.120408 6.75979 0 6.63261 0 6.5Z" fill="currentColor"/>
<path fill-rule="evenodd" clip-rule="evenodd" d="M0 12.5C0 12.3674 0.120408 12.2402 0.334735 12.1464C0.549062 12.0527 0.839753 12 1.14286 12H14.8571C15.1602 12 15.4509 12.0527 15.6653 12.1464C15.8796 12.2402 16 12.3674 16 12.5C16 12.6326 15.8796 12.7598 15.6653 12.8536C15.4509 12.9473 15.1602 13 14.8571 13H1.14286C0.839753 13 0.549062 12.9473 0.334735 12.8536C0.120408 12.7598 0 12.6326 0 12.5Z" fill="currentColor"/>
</svg>
