<svg width="30" height="23" viewBox="0 0 30 23" fill="none" xmlns="http://www.w3.org/2000/svg">
<path d="M27.3618 2.13167C29.0784 3.955 30.0001 6.00001 30.0001 9.315C30.0001 15.1483 25.9051 20.3767 19.9501 22.9617L18.4618 20.665C24.0201 17.6583 25.1068 13.7567 25.5401 11.2967C24.6451 11.76 23.4734 11.9217 22.3251 11.815C19.3184 11.5367 16.9484 9.06834 16.9484 6C16.9484 4.45291 17.563 2.96918 18.657 1.87522C19.7509 0.781254 21.2347 0.166672 22.7818 0.166672C24.5701 0.166672 26.2801 0.983338 27.3618 2.13167ZM10.6951 2.13167C12.4117 3.955 13.3334 6.00001 13.3334 9.315C13.3334 15.1483 9.23842 20.3767 3.28342 22.9617L1.79508 20.665C7.35342 17.6583 8.44008 13.7567 8.87342 11.2967C7.97842 11.76 6.80675 11.9217 5.65842 11.815C2.65175 11.5367 0.283417 9.06834 0.283417 6C0.283417 4.45291 0.897998 2.96918 1.99196 1.87522C3.08592 0.781254 4.56965 0.166672 6.11675 0.166672C7.90508 0.166672 9.61508 0.983338 10.6968 2.13167H10.6951Z" fill="#F8F8F8"/>
</svg>
